<?xml version="1.0" encoding="utf-8"?>
<!-- Generator: Adobe Illustrator 25.4.1, SVG Export Plug-In . SVG Version: 6.00 Build 0)  -->
<svg version="1.1" id="Ebene_1" xmlns="http://www.w3.org/2000/svg" xmlns:xlink="http://www.w3.org/1999/xlink" x="0px" y="0px"
	 viewBox="0 0 500 500" style="enable-background:new 0 0 500 500;" xml:space="preserve">
<style type="text/css">
	.st0{fill:#E8B426;}
	.st1{opacity:0.54;}
</style>
<g>
	<path class="st0" d="M319,181c58.3,58.4,57.5,152,0.4,209.6c-0.1,0.1-0.2,0.2-0.4,0.4l-65.6,65.6c-57.9,57.9-152,57.9-209.9,0
		c-57.9-57.9-57.9-152.1,0-209.9l36.2-36.2c9.6-9.6,26.2-3.2,26.7,10.4c0.6,17.3,3.7,34.7,9.5,51.5c1.9,5.7,0.6,12-3.7,16.2
		l-12.8,12.8c-27.4,27.4-28.2,71.9-1.1,99.6c27.4,27.9,72.3,28.1,99.9,0.5l65.6-65.6c27.5-27.5,27.4-72,0-99.4
		c-3.6-3.6-7.3-6.4-10.1-8.4c-4.1-2.8-6.6-7.4-6.8-12.3c-0.4-10.3,3.3-21,11.4-29.1l20.6-20.6c5.4-5.4,13.8-6.1,20.1-1.7
		C306.1,169.3,312.8,174.9,319,181L319,181z"/>
	<path class="st1" d="M456.6,43.4c-57.9-57.9-152-57.9-209.9,0L181,109c-0.1,0.1-0.2,0.2-0.4,0.4c-57.2,57.5-58,151.2,0.4,209.6
		c6.2,6.2,12.9,11.8,20,16.8c6.3,4.4,14.7,3.7,20.1-1.7l20.6-20.6c8.2-8.2,11.8-18.8,11.4-29.1c-0.2-4.9-2.7-9.5-6.8-12.3
		c-2.8-2-6.5-4.8-10.1-8.4c-27.4-27.4-27.5-71.9,0-99.4l65.6-65.6c27.6-27.6,72.6-27.4,99.9,0.5c27.1,27.6,26.2,72.2-1.1,99.6
		l-12.8,12.8c-4.2,4.2-5.6,10.5-3.7,16.2c5.7,16.8,8.8,34.2,9.5,51.5c0.5,13.6,17,20,26.7,10.4l36.2-36.2
		C514.5,195.5,514.5,101.3,456.6,43.4L456.6,43.4z"/>
</g>
</svg>
