<?xml version="1.0" encoding="utf-8"?>
<!-- Generator: Adobe Illustrator 25.4.1, SVG Export Plug-In . SVG Version: 6.00 Build 0)  -->
<svg version="1.1" id="Ebene_1" xmlns="http://www.w3.org/2000/svg" xmlns:xlink="http://www.w3.org/1999/xlink" x="0px" y="0px"
	 viewBox="0 0 500 500" style="enable-background:new 0 0 500 500;" xml:space="preserve">
<style type="text/css">
	.st0{opacity:0.5;fill:#E8B426;}
	.st1{fill:#E8B426;}
	.st2{opacity:0.54;}
	.st3{fill:#FFFFFF;}
	.st4{fill:#D8E9C9;}
	.st5{fill:#477CA8;}
	.st6{fill:#D8E5ED;}
</style>
<g>
	<path class="st0" d="M169.9,479.9c-29,0-64.5-20.5-79-45.6L10.9,295.6c-14.5-25.1-14.5-66.2,0-91.2L90.9,65.7
		c14.5-25.1,50-45.6,79-45.6h160.1c29,0,64.5,20.5,79,45.6l80.1,138.7c14.5,25.1,14.5,66.2,0,91.2l-80.1,138.7
		c-14.5,25.1-50,45.6-79,45.6H169.9L169.9,479.9z"/>
	<path class="st1" d="M445.5,380.8c0,3.9-3.1,7-7,7H82c-3.9,0-7-3.1-7-7v-61.5c0-3.9,3.1-7,7-7h356.5c3.9,0,7,3.1,7,7V380.8
		L445.5,380.8z"/>
	<g class="st2">
		<path d="M438.5,390.4H82c-5.3,0-9.7-4.3-9.7-9.7v-61.5c0-5.3,4.3-9.7,9.7-9.7h356.5c5.3,0,9.7,4.3,9.7,9.7v61.5
			C448.1,386.1,443.8,390.4,438.5,390.4z M82,314.9c-2.4,0-4.4,2-4.4,4.4v61.5c0,2.4,2,4.4,4.4,4.4h356.5c2.4,0,4.4-2,4.4-4.4v-61.5
			c0-2.4-2-4.4-4.4-4.4H82z"/>
	</g>
	<path class="st3" d="M154.4,312.3H82c-3.9,0-7,3.1-7,7v61.5c0,3.9,3.1,7,7,7h72.4V312.3L154.4,312.3z"/>
	<g class="st2">
		<path d="M157,390.4H82c-5.3,0-9.7-4.3-9.7-9.7v-61.5c0-5.3,4.3-9.7,9.7-9.7h75V390.4z M82,314.9c-2.4,0-4.4,2-4.4,4.4v61.5
			c0,2.4,2,4.4,4.4,4.4h69.7v-70.2H82z"/>
	</g>
	<g class="st2">
		<path d="M299.4,367.6h-38.7v-3.5h38.7V367.6z M252.6,367.6h-38.6v-3.5h38.6V367.6z M206.1,367.6h-10.3v-3.5h10.3V367.6z
			 M187.5,367.6h-12.5v-3.5h12.5V367.6z M273.1,357.1l0-3.5l50.4-0.1l0,3.5L273.1,357.1z M266.4,357.1h-7.3v-3.5h7.3V357.1z
			 M252.6,357.1h-17.8v-3.5h17.8V357.1z M227.8,357.1h-52.7v-3.5h52.7V357.1z M323.5,346.7h-15.4v-3.5h15.4V346.7z M299.4,346.7
			h-38.6v-3.5h38.6V346.7z M252.6,346.7H221v-3.5h31.6V346.7z M212.5,346.7h-7.3v-3.5h7.3V346.7z M198.1,346.7h-23v-3.5h23V346.7z
			 M312.9,336.2h-50.3v-3.5h50.3V336.2z M254.1,336.2h-79.3v-3.5h79.3V336.2z"/>
	</g>
	<path class="st2" d="M412.2,362.2c-3.8-4.7-10.5-13.9-10.5-18.3c0-5.8,4.7-10.5,10.5-10.5c5.8,0,10.5,4.7,10.5,10.5
		C422.7,348.3,416,357.5,412.2,362.2L412.2,362.2z M412.2,329.8c-7.7,0-14,6.3-14,14c0,7.2,11.4,20.7,12.7,22.2l1.3,1.6l1.3-1.6
		c1.3-1.5,12.7-15,12.7-22.2C426.2,336.1,419.9,329.8,412.2,329.8L412.2,329.8z"/>
	<path class="st2" d="M412.1,347.3c-1.9,0-3.5-1.6-3.5-3.5c0-1.9,1.6-3.5,3.5-3.5c1.9,0,3.5,1.6,3.5,3.5
		C415.6,345.7,414.1,347.3,412.1,347.3L412.1,347.3z M412.1,336.8c-3.9,0-7,3.2-7,7c0,3.9,3.2,7,7,7c3.9,0,7-3.2,7-7
		C419.2,339.9,416,336.8,412.1,336.8L412.1,336.8z"/>
	<path class="st2" d="M368.3,332.9c8.7,0,15.8,7.1,15.8,15.8c0,8.7-7.1,15.8-15.8,15.8c-8.7,0-15.8-7.1-15.8-15.8
		C352.4,340,359.5,332.9,368.3,332.9L368.3,332.9z M368.3,368c10.7,0,19.3-8.7,19.3-19.3c0-10.7-8.7-19.3-19.3-19.3
		c-10.7,0-19.3,8.7-19.3,19.3C348.9,359.4,357.6,368,368.3,368L368.3,368z"/>
	<polygon class="st2" points="376.5,354.5 370,348 370,336.4 366.5,336.4 366.5,349.4 374,357 376.5,354.5 	"/>
	<path class="st1" d="M273.5,285.2c0,4-3.2,7.2-7.2,7.2H68.8c-4,0-7.2-3.2-7.2-7.2V120c0-4,3.2-7.2,7.2-7.2h197.5
		c4,0,7.2,3.2,7.2,7.2V285.2L273.5,285.2z"/>
	<g class="st2">
		<path d="M266.3,295.1H68.8c-5.4,0-9.8-4.4-9.8-9.8V120c0-5.4,4.4-9.8,9.8-9.8h197.5c5.4,0,9.8,4.4,9.8,9.8v165.2
			C276.1,290.7,271.7,295.1,266.3,295.1z M68.8,115.5c-2.5,0-4.5,2-4.5,4.5v165.2c0,2.5,2,4.6,4.5,4.6h197.5c2.5,0,4.5-2,4.5-4.6
			V120c0-2.5-2-4.5-4.5-4.5H68.8z"/>
	</g>
	<path class="st3" d="M286.9,285.2c0,4-3.2,7.2-7.2,7.2H82.2c-4,0-7.2-3.2-7.2-7.2V120c0-4,3.2-7.2,7.2-7.2h197.5
		c4,0,7.2,3.2,7.2,7.2V285.2L286.9,285.2z"/>
	<path class="st1" d="M75,140.6V120c0-4,3.2-7.2,7.2-7.2h197.5c4,0,7.2,3.2,7.2,7.2v20.5"/>
	<polygon class="st1" points="172.1,181.1 157.7,181.1 157.7,166.7 172.1,166.7 172.1,181.1 	"/>
	<polygon class="st1" points="200.8,181.1 186.5,181.1 186.5,166.7 200.8,166.7 200.8,181.1 	"/>
	<polygon class="st1" points="229.6,181.1 215.2,181.1 215.2,166.7 229.6,166.7 229.6,181.1 	"/>
	<polygon class="st1" points="258.3,181.1 243.9,181.1 243.9,166.7 258.3,166.7 258.3,181.1 	"/>
	<polygon class="st1" points="114.6,209.8 100.3,209.8 100.3,195.4 114.6,195.4 114.6,209.8 	"/>
	<polygon class="st1" points="143.4,209.8 129,209.8 129,195.4 143.4,195.4 143.4,209.8 	"/>
	<polygon class="st1" points="172.1,209.8 157.7,209.8 157.7,195.4 172.1,195.4 172.1,209.8 	"/>
	<polygon class="st1" points="200.8,209.8 186.5,209.8 186.5,195.4 200.8,195.4 200.8,209.8 	"/>
	<polygon class="st1" points="229.6,209.8 215.2,209.8 215.2,195.4 229.6,195.4 229.6,209.8 	"/>
	<g class="st2">
		<path d="M231.3,211.6h-17.9v-17.9h17.9V211.6z M217,208.1h10.9v-10.9H217V208.1z"/>
	</g>
	<polygon class="st1" points="258.3,209.8 243.9,209.8 243.9,195.4 258.3,195.4 258.3,209.8 	"/>
	<polygon class="st1" points="114.6,238.5 100.3,238.5 100.3,224.2 114.6,224.2 114.6,238.5 	"/>
	<polygon class="st1" points="143.4,238.5 129,238.5 129,224.2 143.4,224.2 143.4,238.5 	"/>
	<polygon class="st1" points="172.1,238.5 157.7,238.5 157.7,224.2 172.1,224.2 172.1,238.5 	"/>
	<polygon class="st1" points="200.8,238.5 186.5,238.5 186.5,224.2 200.8,224.2 200.8,238.5 	"/>
	<polygon class="st1" points="229.6,238.5 215.2,238.5 215.2,224.2 229.6,224.2 229.6,238.5 	"/>
	<polygon class="st1" points="258.3,238.5 243.9,238.5 243.9,224.2 258.3,224.2 258.3,238.5 	"/>
	<polygon class="st1" points="114.6,267.3 100.3,267.3 100.3,252.9 114.6,252.9 114.6,267.3 	"/>
	<polygon class="st1" points="143.4,267.3 129,267.3 129,252.9 143.4,252.9 143.4,267.3 	"/>
	<polygon class="st1" points="172.1,267.3 157.7,267.3 157.7,252.9 172.1,252.9 172.1,267.3 	"/>
	<g class="st2">
		<path d="M254.7,261.8h-7.2v-3.5h7.2V261.8z M226,261.8h-7.2v-3.5h7.2V261.8z M197.2,261.8h-7.2v-3.5h7.2V261.8z M139.8,175.7h-7.2
			v-3.5h7.2V175.7z M111.1,175.7h-7.2v-3.5h7.2V175.7z"/>
	</g>
	<g class="st2">
		<path d="M279.7,295.1H82.2c-5.4,0-9.8-4.4-9.8-9.8V120c0-5.4,4.4-9.8,9.8-9.8h197.5c5.4,0,9.8,4.4,9.8,9.8v72.5h-5.3V120
			c0-2.5-2-4.5-4.5-4.5H82.2c-2.5,0-4.5,2-4.5,4.5v165.2c0,2.5,2,4.6,4.5,4.6h197.5c2.5,0,4.5-2,4.5-4.6v-72.5h5.3v72.5
			C289.5,290.7,285.1,295.1,279.7,295.1z"/>
	</g>
	<g class="st2">
		<path d="M249.4,127.6h-2.3v-5.3h2.3c2.4,0,4.4-2,4.4-4.4v-11.7c0-2.4-2-4.4-4.4-4.4h-2.3c-2.4,0-4.4,2-4.4,4.4v8.2h-5.3v-8.2
			c0-5.3,4.3-9.7,9.7-9.7h2.3c5.3,0,9.7,4.3,9.7,9.7V118C259.1,123.3,254.7,127.6,249.4,127.6z M220.7,127.6h-2.3v-5.3h2.3
			c2.4,0,4.4-2,4.4-4.4v-11.7c0-2.4-2-4.4-4.4-4.4h-2.3c-2.4,0-4.4,2-4.4,4.4v8.2h-5.3v-8.2c0-5.3,4.3-9.7,9.7-9.7h2.3
			c5.3,0,9.7,4.3,9.7,9.7V118C230.4,123.3,226.1,127.6,220.7,127.6z M192.1,127.6h-2.3v-5.3h2.3c2.4,0,4.4-2,4.4-4.4v-11.7
			c0-2.4-2-4.4-4.4-4.4h-2.3c-2.4,0-4.4,2-4.4,4.4v8.2h-5.3v-8.2c0-5.3,4.3-9.7,9.7-9.7h2.3c5.3,0,9.7,4.3,9.7,9.7V118
			C201.7,123.3,197.4,127.6,192.1,127.6z M163.4,127.6H161v-5.3h2.3c2.4,0,4.4-2,4.4-4.4v-11.7c0-2.4-2-4.4-4.4-4.4H161
			c-2.4,0-4.4,2-4.4,4.4v8.2h-5.3v-8.2c0-5.3,4.3-9.7,9.7-9.7h2.3c5.3,0,9.7,4.3,9.7,9.7V118C173,123.3,168.7,127.6,163.4,127.6z
			 M134.7,127.6h-2.3v-5.3h2.3c2.4,0,4.4-2,4.4-4.4v-11.7c0-2.4-2-4.4-4.4-4.4h-2.3c-2.4,0-4.4,2-4.4,4.4v8.2h-5.3v-8.2
			c0-5.3,4.3-9.7,9.7-9.7h2.3c5.3,0,9.7,4.3,9.7,9.7V118C144.3,123.3,140,127.6,134.7,127.6z M106,127.6h-2.3v-5.3h2.3
			c2.4,0,4.4-2,4.4-4.4v-11.7c0-2.4-2-4.4-4.4-4.4h-2.3c-2.4,0-4.4,2-4.4,4.4v8.2H94v-8.2c0-5.3,4.3-9.7,9.7-9.7h2.3
			c5.3,0,9.7,4.3,9.7,9.7V118C115.7,123.3,111.3,127.6,106,127.6z"/>
	</g>
	<path class="st2" d="M101.3,336.9c0-1.9-1.6-3.5-3.5-3.5c-1.9,0-3.5,1.6-3.5,3.5c0,1.9,1.6,3.5,3.5,3.5
		C99.8,340.4,101.3,338.8,101.3,336.9L101.3,336.9z"/>
	<path class="st2" d="M94.3,365h3.5v-10.5h1.8V365h3.5v-10.5v-3.5v-5.3h3.5v-3.5H96.1c-1.9,0-3.5,1.6-3.5,3.5v8.8h1.8V365L94.3,365z
		"/>
	<path class="st2" d="M132.9,336.9c0-1.9-1.6-3.5-3.5-3.5c-1.9,0-3.5,1.6-3.5,3.5c0,1.9,1.6,3.5,3.5,3.5
		C131.4,340.4,132.9,338.8,132.9,336.9L132.9,336.9z"/>
	<path class="st2" d="M131.2,342.1h-10.5v3.5h3.5v5.3v3.5V365h3.5v-10.5h1.8V365h3.5v-10.5h1.8v-8.8
		C134.7,343.7,133.1,342.1,131.2,342.1L131.2,342.1z"/>
	<path class="st2" d="M117.1,336.9c0-1.9-1.6-3.5-3.5-3.5c-1.9,0-3.5,1.6-3.5,3.5c0,1.9,1.6,3.5,3.5,3.5
		C115.6,340.4,117.1,338.8,117.1,336.9L117.1,336.9z"/>
	<path class="st2" d="M108.3,345.7v7h1.8V365h7v-12.3h1.8v-7c0-1.9-1.6-3.5-3.5-3.5h-3.5C109.9,342.1,108.3,343.7,108.3,345.7
		L108.3,345.7z"/>
	<g class="st2">
		<polygon points="411,312.9 407.5,312.9 407.5,203.4 236.4,203.4 236.4,199.8 411,199.8 		"/>
	</g>
</g>
</svg>
