<?xml version="1.0" encoding="utf-8"?>
<!-- Generator: Adobe Illustrator 25.4.1, SVG Export Plug-In . SVG Version: 6.00 Build 0)  -->
<svg version="1.1" id="Ebene_1" xmlns="http://www.w3.org/2000/svg" xmlns:xlink="http://www.w3.org/1999/xlink" x="0px" y="0px"
	 viewBox="0 0 500 500" style="enable-background:new 0 0 500 500;" xml:space="preserve">
<style type="text/css">
	.st0{fill:#E8B426;}
	.st1{opacity:0.54;}
</style>
<g>
	<path class="st1" d="M497,405.2l-43-43c-1.9-1.9-4.6-3-7.3-3h-7c11.9-15.2,19-34.4,19-55.2c0-49.6-40.2-89.8-89.8-89.8
		s-89.8,40.2-89.8,89.8s40.2,89.8,89.8,89.8c20.8,0,40-7.1,55.2-19v7c0,2.8,1.1,5.4,3,7.3l43,43c4.1,4.1,10.6,4.1,14.6,0l12.2-12.2
		C501,415.8,501,409.2,497,405.2z M368.8,359.1c-30.5,0-55.2-24.7-55.2-55.2c0-30.5,24.7-55.2,55.2-55.2c30.5,0,55.2,24.7,55.2,55.2
		C424.1,334.4,399.4,359.1,368.8,359.1z"/>
	<g>
		<path class="st0" d="M273.4,281.3H86.6V108.2h259.7v100.2c7.3-1.7,14.8-2.6,22.6-2.6c7.1,0,14,0.8,20.7,2.2V97.4
			c0-17.9-14.6-32.5-32.5-32.5H75.7c-17.9,0-32.5,14.6-32.5,32.5v227.2H273c-1.4-6.7-2.2-13.6-2.2-20.7
			C270.7,296.1,271.7,288.6,273.4,281.3z"/>
		<path class="st0" d="M417.3,389.2c-14.7,8.4-31.2,12.8-48.5,12.8c-38.9,0-72.6-22.8-88.5-55.7H258c-0.5,13.4-9.9,21.6-22.1,21.6
			h-41.1c-12.6,0-22.3-11.8-22.2-21.6H10.8c-6,0-10.8,4.9-10.8,10.8v10.8c0,23.8,19.5,43.3,43.3,43.3h346.3
			c13.1,0,24.8-5.9,32.8-15.1l-1.1-1.1C419.5,393.2,418.2,391.3,417.3,389.2z"/>
	</g>
</g>
</svg>
