<?xml version="1.0" encoding="utf-8"?>
<!-- Generator: Adobe Illustrator 25.4.1, SVG Export Plug-In . SVG Version: 6.00 Build 0)  -->
<svg version="1.1" id="Ebene_1" xmlns="http://www.w3.org/2000/svg" xmlns:xlink="http://www.w3.org/1999/xlink" x="0px" y="0px"
	 viewBox="0 0 500 500" style="enable-background:new 0 0 500 500;" xml:space="preserve">
<style type="text/css">
	.st0{opacity:0.5;fill:#E8B426;}
	.st1{fill:#E8B426;}
	.st2{opacity:0.54;}
	.st3{fill:#FFFFFF;}
	.st4{fill:#D8E9C9;}
	.st5{fill:#477CA8;}
	.st6{fill:#D8E5ED;}
</style>
<g>
	<path class="st0" d="M169.9,485c-29,0-64.5-20.5-79-45.6L10.9,300.7c-14.5-25.1-14.5-66.2,0-91.2L90.9,70.8
		c14.5-25.1,50-45.6,79-45.6h160.1c29,0,64.5,20.5,79,45.6l80.1,138.7c14.5,25.1,14.5,66.2,0,91.2l-80.1,138.7
		c-14.5,25.1-50,45.6-79,45.6H169.9L169.9,485z"/>
	<polygon class="st1" points="386.7,356.8 399,356.8 399,375.9 386.7,375.9 386.7,356.8 	"/>
	<g class="st2">
		<path d="M401.7,378.5h-17.6v-20.3c-11.3-0.9-22.6-4-33.3-9.4c-2.7-1.4-5.4-2.9-7.9-4.5l2.8-4.4c2.4,1.5,4.9,3,7.5,4.2
			c41.9,21.2,93.2,4.3,114.3-37.6c21.1-41.9,4.3-93.2-37.6-114.3c-2.4-1.2-5-2.4-7.9-3.5l1.9-4.9c3,1.2,5.8,2.4,8.3,3.7
			c44.5,22.5,62.4,76.9,39.9,121.4c-14.2,28.1-41.3,45.6-70.5,49V378.5z M389.3,373.2h7.1v-13.8h-7.1V373.2z"/>
	</g>
	<path class="st1" d="M331,385.2c0.3-6.7,5.8-12.1,12.5-12.1h98.6c6.8,0,12.3,5.4,12.5,12.1H331L331,385.2z"/>
	<g class="st2">
		<path d="M457.5,387.8H328.3l0.1-2.7c0.3-8.2,7-14.6,15.2-14.6h98.6c8.2,0,14.9,6.4,15.2,14.6L457.5,387.8z M334.1,382.6h117.4
			c-1.3-4-5-6.8-9.4-6.8h-98.6C339.2,375.8,335.5,378.6,334.1,382.6z M342.7,355.6l-4.7-2.4l14.1-27.8l4.7,2.4L342.7,355.6z
			 M419.8,204.1l-4.7-2.4l13.5-26.5l4.7,2.4L419.8,204.1z"/>
	</g>
	<path class="st1" d="M419.8,206.7c-33.7-14.9-73.3,0.5-88.1,34.2c-14.9,33.7,0.5,73.3,34.2,88.1c33.7,14.9,73.3-0.5,88.1-34.2
		C468.9,261.1,453.5,221.6,419.8,206.7L419.8,206.7z"/>
	<path class="st3" d="M460.1,276.6l-9.6,7.4l-17.2,14.5l-0.8-14.1l-11.2,2l-1.2-13l-7.7,4.1l-2.2-1.7l-6.6-6.6l-2.1,9l5.1,5.1
		L384.4,305l-6,1l0-11.6l4.3-17.6l-7.9-3.9l-0.8-7.6l10-10.5l7.4,1.4l3,4.6l10.9,1.9l-8.2-10.8l-8.4-5.5l0.7-2.9l11-1.2l-1.2-7.4
		l12.4-4.2l8,7.5l17.9,2c0,0,7.9-0.6,16.8-1.2C459.7,250.6,461.8,263.6,460.1,276.6L460.1,276.6z"/>
	<path class="st4" d="M374.1,201.6l-6.3,4.6l-11.2,8.6c-0.3,0.2-0.5,0.6-0.4,1l1.3,8.9c0.1,0.4,0.4,0.7,0.6,0.8
		c0.3,0.1,0.7,0.1,1-0.1l6.3-4.4l3.5,12.3l-20,6.5l-8.5-2.8c-0.4-0.1-0.8,0-1.1,0.3l-3.9,4.2c-0.2,0.3-0.3,0.6-0.3,1l2.4,9.3l-7-7.9
		l-1.2-4.1C338.1,220.2,354.9,206.8,374.1,201.6L374.1,201.6z"/>
	<path class="st4" d="M338.5,277.7l-0.8-13.3l11.6-10.5l10.3,23l-27.4,23.2l0-8l6.3-13.9C338.5,278,338.5,277.8,338.5,277.7
		L338.5,277.7z"/>
	<path class="st3" d="M379,224.7l-0.6-18c12.5-0.7,19.9,1.2,22.7,2.1l-9,12.3L379,224.7L379,224.7z"/>
	<path class="st2" d="M393,195.7c-28.6,0-54.6,16.9-66.1,43.1c-16,36.4,0.5,79,36.9,95.1c9.2,4.1,19,6.1,29,6.1
		c28.6,0,54.6-16.9,66.1-43c7.8-17.6,8.2-37.2,1.2-55.2c-7-18-20.5-32.2-38.1-39.9C412.7,197.8,403,195.7,393,195.7L393,195.7
		L393,195.7z M393,201c9,0,18.1,1.8,26.9,5.7c33.7,14.9,49.1,54.4,34.2,88.1c-11,25-35.6,39.9-61.3,39.9c-9,0-18.1-1.8-26.9-5.7
		c-33.7-14.9-49.1-54.4-34.2-88.1C342.7,215.9,367.2,201,393,201"/>
	<path class="st5" d="M375.6,205.2c-0.1,0-0.3,0.1-0.2,0.2c0,0,0,0,0.1,0C375.6,205.5,375.8,205.4,375.6,205.2
		C375.7,205.2,375.7,205.2,375.6,205.2L375.6,205.2L375.6,205.2z"/>
	<path class="st1" d="M180.9,336v31.6c0,9.7-7.9,17.6-17.6,17.6h105.4c-9.7,0-17.6-7.9-17.6-17.6V336H180.9L180.9,336z"/>
	<g class="st2">
		<path d="M268.7,387.8H163.4v-5.3c8.2,0,14.9-6.7,14.9-14.9v-34.2h75.5v34.2c0,8.2,6.7,14.9,14.9,14.9V387.8z M176.9,382.6h78.2
			c-4.1-3.7-6.6-9-6.6-14.9v-29h-65v29C183.6,373.5,181,378.9,176.9,382.6z"/>
	</g>
	<path class="st1" d="M377.4,303.8V113.1c0-4.9-4-8.9-8.9-8.9H60.4c-4.9,0-8.9,4-8.9,8.9v190.7H377.4L377.4,303.8z"/>
	<g class="st2">
		<path d="M380.1,306.4H48.8V113.1c0-6.4,5.2-11.6,11.6-11.6h308.1c6.4,0,11.6,5.2,11.6,11.6V306.4z M54.1,301.1h320.7v-188
			c0-3.5-2.8-6.3-6.3-6.3H60.4c-3.5,0-6.3,2.8-6.3,6.3V301.1z"/>
	</g>
	<polygon class="st3" points="68.7,286 68.7,121.8 359.9,121.8 359.9,286 68.7,286 	"/>
	<path class="st1" d="M51.3,303.6v27.5c0,5.3,5.4,11.1,10.7,11.1h307.3c5.3,0,8.4-5.4,8.4-10.7v-27.9H51.3L51.3,303.6z"/>
	<g class="st2">
		<path d="M369.3,344.8H62c-6.6,0-13.3-7-13.3-13.8v-30.1h331.7v30.6C380.4,338.1,376.2,344.8,369.3,344.8z M53.9,306.2v24.9
			c0,3.9,4.4,8.5,8,8.5h307.3c3.6,0,5.8-4.1,5.8-8.1v-25.3H53.9z"/>
	</g>
	<g class="st2">
		<path d="M340,278.1h-1.8V171h1.8V278.1z M323.4,278.1h-1.8V171h1.8V278.1z M306.7,278.1h-1.8V171h1.8V278.1z M290,278.1h-1.8V171
			h1.8V278.1z M273.3,278.1h-1.8V171h1.8V278.1z M256.6,278.1h-1.8V171h1.8V278.1z M240,278.1h-1.8V171h1.8V278.1z M223.3,278.1
			h-1.8V171h1.8V278.1z M206.6,278.1h-1.8V171h1.8V278.1z M189.9,278.1h-1.8V171h1.8V278.1z M173.2,278.1h-1.8V171h1.8V278.1z
			 M156.5,278.1h-1.8V171h1.8V278.1z M139.9,278.1h-1.8V171h1.8V278.1z M123.2,278.1h-1.8V171h1.8V278.1z"/>
	</g>
	<g class="st2">
		<path d="M350.6,175.4h-5.3V170h5.3V175.4z M333.9,175.4h-5.3V170h5.3V175.4z M317.2,175.4H312V170h5.3V175.4z M300.5,175.4h-5.3
			V170h5.3V175.4z M283.9,175.4h-5.3V170h5.3V175.4z M267.2,175.4h-5.3V170h5.3V175.4z M250.5,175.4h-5.3V170h5.3V175.4z
			 M233.8,175.4h-5.3V170h5.3V175.4z M217.1,175.4h-5.3V170h5.3V175.4z M200.4,175.4h-5.3V170h5.3V175.4z M183.8,175.4h-5.3V170h5.3
			V175.4z M167.1,175.4h-5.3V170h5.3V175.4z M150.4,175.4h-5.3V170h5.3V175.4z M133.7,175.4h-5.3V170h5.3V175.4z"/>
	</g>
	<path class="st2" d="M106.7,160.3v-3.2c0-3.5-2.8-6.3-6.3-6.3H89.3c-3.5,0-6.3,2.8-6.3,6.3v3.2H106.7L106.7,160.3z"/>
	<path class="st2" d="M100.4,140.5c0-3.1-2.5-5.5-5.5-5.5c-3.1,0-5.5,2.5-5.5,5.5c0,3.1,2.5,5.5,5.5,5.5
		C97.9,146,100.4,143.6,100.4,140.5L100.4,140.5z"/>
	<g class="st2">
		<rect x="117.6" y="140.2" width="74.3" height="5.3"/>
	</g>
	<g class="st2">
		<path d="M98.9,208.7H83v-5.3h15.9V208.7z M105.9,199.9H83v-5.3h23V199.9z M103.2,191.1H83v-5.3h20.2V191.1z M109.4,182.4H83v-5.3
			h26.5V182.4z M103.2,173.6H83v-5.3h20.2V173.6z"/>
	</g>
	<g class="st2">
		<rect x="117.6" y="149.7" width="49.7" height="5.3"/>
	</g>
	<g>
		<rect x="223.3" y="185.3" class="st1" width="80.8" height="7"/>
	</g>
	<g>
		<rect x="140.2" y="204" class="st1" width="80.8" height="7"/>
	</g>
	<g>
		<path class="st1" d="M304,229.8H182.3v-7H304V229.8z M236.2,211.1h-38.6v-7h38.6V211.1z"/>
	</g>
	<g>
		<path class="st1" d="M237.3,273.7H123.5v-7h113.8V273.7z M289.1,218.4H156v-7h133.2V218.4z"/>
	</g>
	<g>
		<rect x="161.2" y="241.5" class="st1" width="37.5" height="7"/>
	</g>
	<g>
		<rect x="197.5" y="241.5" class="st1" width="85.5" height="7"/>
	</g>
	<g>
		<rect x="223.3" y="260.2" class="st1" width="80.8" height="7"/>
	</g>
	<g class="st2">
		<path d="M138.6,365.9h-23.6v-5.3h23.6c2.8,0,5-2.3,5-5v-34.8c0-2.8-2.3-5-5-5h-23.6v-5.3h23.6c5.7,0,10.3,4.6,10.3,10.3v34.8
			C148.9,361.3,144.3,365.9,138.6,365.9z"/>
	</g>
	<path class="st1" d="M124.9,293.2v78.8c0,7.3-5.9,13.2-13.2,13.2H50.3c-7.3,0-13.2-5.9-13.2-13.2v-78.8H124.9L124.9,293.2z"/>
	<g class="st2">
		<path d="M111.6,387.8H50.3c-8.8,0-15.9-7.1-15.9-15.9v-81.4h93.1v81.4C127.5,380.7,120.4,387.8,111.6,387.8z M39.7,295.8v76.1
			c0,5.9,4.8,10.6,10.6,10.6h61.3c5.9,0,10.6-4.8,10.6-10.6v-76.1H39.7z"/>
	</g>
	<g class="st2">
		<path d="M78.9,282.5c-4.6-5.7-2.3-11.5-0.4-16.1c1.9-4.7,2.9-7.7,0.4-10.8l4.1-3.3c4.6,5.7,2.3,11.5,0.4,16.1
			c-1.9,4.7-2.9,7.7-0.4,10.8L78.9,282.5z M93.6,282.5c-4.6-5.7-2.3-11.5-0.4-16.1c1.9-4.7,2.9-7.7,0.4-10.8l4.1-3.3
			c4.6,5.7,2.3,11.5,0.4,16.1c-1.9,4.7-2.9,7.7-0.4,10.8L93.6,282.5z M64.3,282.5c-4.6-5.7-2.3-11.5-0.4-16.1
			c1.9-4.7,2.9-7.7,0.4-10.8l4.1-3.3c4.6,5.7,2.3,11.5,0.4,16.1c-1.9,4.7-2.9,7.7-0.4,10.8L64.3,282.5z"/>
	</g>
	<g class="st2">
		<path d="M124.7,372.5H88.6v-5.3h36.1V372.5z M84.1,372.5h-4.8v-5.3h4.8V372.5z"/>
	</g>
	<polygon class="st3" points="102.5,321.7 87.1,312.8 71.7,321.7 71.7,345.1 87.1,345.1 102.5,345.1 102.5,321.7 	"/>
	<g class="st2">
		<path d="M316.9,387.8H134.3v-5.3h182.6V387.8z M105.1,347.7h-36v-27.6l15.4-8.9v-18.9h5.3v18.9l15.4,8.9V347.7z M74.4,342.5h25.5
			v-19.3l-10.1-5.8v4.6h-5.3v-4.6l-10.1,5.8V342.5z"/>
	</g>
</g>
</svg>
