<?xml version="1.0" encoding="utf-8"?>
<!-- Generator: Adobe Illustrator 25.4.1, SVG Export Plug-In . SVG Version: 6.00 Build 0)  -->
<svg version="1.1" id="Ebene_1" xmlns="http://www.w3.org/2000/svg" xmlns:xlink="http://www.w3.org/1999/xlink" x="0px" y="0px"
	 viewBox="0 0 500 500" style="enable-background:new 0 0 500 500;" xml:space="preserve">
<style type="text/css">
	.st0{opacity:0.5;fill:#E8B426;}
	.st1{fill:#E8B426;}
	.st2{opacity:0.54;}
	.st3{fill:#FFFFFF;}
	.st4{fill:#D8E9C9;}
	.st5{fill:#477CA8;}
	.st6{fill:#D8E5ED;}
</style>
<g>
	<path class="st0" d="M493.3,229.7c11.8,26.6,7.5,67.5-9.6,91l-94.5,129.9c-17.1,23.5-54.7,40.2-83.6,37.2l-159.7-16.9
		c-28.9-3-62.2-27.3-74-53.8L6.7,270.3c-11.8-26.6-7.5-67.5,9.6-91l94.5-129.9c17.1-23.5,54.7-40.2,83.6-37.2l159.7,16.9
		c28.9,3,62.2,27.3,74,53.8L493.3,229.7L493.3,229.7z"/>
	<path class="st1" d="M292.3,82c0,23.1-18.7,41.8-41.8,41.8c-23.1,0-41.8-18.7-41.8-41.8c0-23.1,18.7-41.8,41.8-41.8
		C273.6,40.2,292.3,58.9,292.3,82L292.3,82z"/>
	<g class="st2">
		<path d="M250.5,126.5C226,126.5,206,106.5,206,82c0-24.5,19.9-44.5,44.5-44.5S295,57.5,295,82C295,106.5,275,126.5,250.5,126.5z
			 M250.5,42.8c-21.6,0-39.2,17.6-39.2,39.2s17.6,39.2,39.2,39.2c21.6,0,39.2-17.6,39.2-39.2S272.1,42.8,250.5,42.8z"/>
	</g>
	<path class="st3" d="M434.1,221.5c0,3.9-3.2,7-7,7H69.5c-3.9,0-7-3.2-7-7v-61.6c0-3.9,3.2-7,7-7H427c3.9,0,7,3.2,7,7V221.5
		L434.1,221.5z"/>
	<g class="st2">
		<path d="M427,231.2H69.5c-5.3,0-9.7-4.3-9.7-9.7v-61.6c0-5.3,4.3-9.7,9.7-9.7H427c5.3,0,9.7,4.3,9.7,9.7v61.6
			C436.7,226.8,432.4,231.2,427,231.2z M69.5,155.4c-2.4,0-4.4,2-4.4,4.4v61.6c0,2.4,2,4.4,4.4,4.4H427c2.4,0,4.4-2,4.4-4.4v-61.6
			c0-2.4-2-4.4-4.4-4.4H69.5z"/>
	</g>
	<path class="st1" d="M142,152.8H69.5c-3.9,0-7,3.2-7,7v61.6c0,3.9,3.2,7,7,7H142V152.8L142,152.8z"/>
	<g class="st2">
		<path d="M144.7,231.2H69.5c-5.3,0-9.7-4.3-9.7-9.7v-61.6c0-5.3,4.3-9.7,9.7-9.7h75.2V231.2z M69.5,155.4c-2.4,0-4.4,2-4.4,4.4
			v61.6c0,2.4,2,4.4,4.4,4.4h69.9v-70.5H69.5z"/>
	</g>
	<g class="st2">
		<path d="M287.5,208.3h-38.8v-3.5h38.8V208.3z M240.5,208.3h-38.8v-3.5h38.8V208.3z M193.9,208.3h-10.3v-3.5h10.3V208.3z
			 M175.3,208.3h-12.5v-3.5h12.5V208.3z M261.1,197.8l0-3.5l50.6-0.1l0,3.5L261.1,197.8z M254.4,197.8h-7.3v-3.5h7.3V197.8z
			 M240.5,197.8h-17.8v-3.5h17.8V197.8z M215.7,197.8h-52.8v-3.5h52.8V197.8z M311.6,187.3h-15.4v-3.5h15.4V187.3z M287.5,187.3
			h-38.8v-3.5h38.8V187.3z M240.5,187.3h-31.7v-3.5h31.7V187.3z M200.4,187.3h-7.3v-3.5h7.3V187.3z M185.9,187.3h-23.1v-3.5h23.1
			V187.3z M301.1,176.8h-50.4v-3.5h50.4V176.8z M242.1,176.8h-79.5v-3.5h79.5V176.8z"/>
	</g>
	<path class="st2" d="M94.9,205h-6.6v-18l0.1-3l0.1-3.2c-1.1,1.1-1.9,1.8-2.3,2.2l-3.6,2.9l-3.2-4l10-8h5.4V205L94.9,205z"/>
	<path class="st2" d="M113.1,178.2c-1.1,0-2,0.3-2.7,0.9c-0.7,0.6-1,1.3-1,2.3c0,0.9,0.3,1.6,0.8,2.3c0.5,0.7,1.5,1.4,3,2.1
		c1.4-0.6,2.4-1.3,2.9-2c0.6-0.7,0.8-1.5,0.8-2.4c0-1-0.4-1.8-1.1-2.3C115.2,178.5,114.2,178.2,113.1,178.2L113.1,178.2z
		 M108.3,196.7c0,1.2,0.4,2.2,1.3,2.9c0.9,0.7,2,1,3.5,1c1.6,0,2.9-0.4,3.7-1.1c0.8-0.7,1.2-1.6,1.2-2.8c0-1-0.4-1.8-1.2-2.7
		c-0.8-0.8-2.1-1.7-3.9-2.6C109.8,192.8,108.3,194.5,108.3,196.7L108.3,196.7z M113.2,173.4c3,0,5.4,0.7,7.2,2
		c1.8,1.4,2.7,3.2,2.7,5.5c0,1.6-0.4,3-1.3,4.2c-0.9,1.2-2.3,2.4-4.3,3.3c2.3,1.2,4,2.6,5,3.9c1,1.4,1.5,2.8,1.5,4.5
		c0,2.6-1,4.6-3,6.2c-2,1.6-4.6,2.3-7.9,2.3c-3.4,0-6.1-0.7-8-2.2c-1.9-1.4-2.9-3.5-2.9-6.2c0-1.8,0.5-3.4,1.4-4.7
		c0.9-1.4,2.5-2.6,4.5-3.6c-1.8-1.1-3.1-2.3-3.8-3.6c-0.8-1.3-1.2-2.7-1.2-4.2c0-2.2,0.9-4,2.8-5.4
		C107.8,174.1,110.2,173.4,113.2,173.4L113.2,173.4z"/>
	<path class="st2" d="M400.6,202.8c-3.8-4.7-10.6-13.9-10.6-18.4c0-5.8,4.7-10.6,10.6-10.6c5.8,0,10.6,4.7,10.6,10.6
		C411.2,188.9,404.5,198.1,400.6,202.8L400.6,202.8z M400.6,170.4c-7.8,0-14.1,6.3-14.1,14.1c0,7.2,11.4,20.8,12.7,22.3l1.3,1.6
		l1.3-1.6c1.3-1.5,12.7-15,12.7-22.3C414.7,176.7,408.4,170.4,400.6,170.4L400.6,170.4z"/>
	<path class="st2" d="M400.6,187.9c-1.9,0-3.5-1.6-3.5-3.5c0-1.9,1.6-3.5,3.5-3.5c1.9,0,3.5,1.6,3.5,3.5
		C404.1,186.3,402.5,187.9,400.6,187.9L400.6,187.9z M400.6,177.3c-3.9,0-7,3.2-7,7c0,3.9,3.2,7,7,7c3.9,0,7-3.2,7-7
		C407.6,180.5,404.5,177.3,400.6,177.3L400.6,177.3z"/>
	<path class="st2" d="M356.6,173.5c8.8,0,15.9,7.1,15.9,15.9c0,8.7-7.1,15.9-15.9,15.9c-8.8,0-15.9-7.1-15.9-15.9
		C340.7,180.6,347.8,173.5,356.6,173.5L356.6,173.5z M356.6,208.7c10.7,0,19.4-8.7,19.4-19.4c0-10.7-8.7-19.4-19.4-19.4
		c-10.7,0-19.4,8.7-19.4,19.4C337.2,200,345.9,208.7,356.6,208.7L356.6,208.7z"/>
	<polygon class="st2" points="364.9,195.1 358.3,188.6 358.3,177 354.8,177 354.8,190 362.4,197.6 364.9,195.1 	"/>
	<path class="st1" d="M447.3,313.1c0,3.9-3.2,7-7,7H82.7c-3.9,0-7-3.2-7-7v-61.6c0-3.9,3.2-7,7-7h357.6c3.9,0,7,3.2,7,7V313.1
		L447.3,313.1z"/>
	<g class="st2">
		<path d="M440.2,322.8H82.7c-5.3,0-9.7-4.3-9.7-9.7v-61.6c0-5.3,4.3-9.7,9.7-9.7h357.6c5.3,0,9.7,4.3,9.7,9.7v61.6
			C449.9,318.4,445.6,322.8,440.2,322.8z M82.7,247c-2.4,0-4.4,2-4.4,4.4v61.6c0,2.4,2,4.4,4.4,4.4h357.6c2.4,0,4.4-2,4.4-4.4v-61.6
			c0-2.4-2-4.4-4.4-4.4H82.7z"/>
	</g>
	<path class="st3" d="M155.2,244.4H82.7c-3.9,0-7,3.2-7,7v61.6c0,3.9,3.2,7,7,7h72.6V244.4L155.2,244.4z"/>
	<g class="st2">
		<path d="M157.9,322.8H82.7c-5.3,0-9.7-4.3-9.7-9.7v-61.6c0-5.3,4.3-9.7,9.7-9.7h75.2V322.8z M82.7,247c-2.4,0-4.4,2-4.4,4.4v61.6
			c0,2.4,2,4.4,4.4,4.4h69.9V247H82.7z"/>
	</g>
	<g class="st2">
		<path d="M300.7,299.8h-38.8v-3.5h38.8V299.8z M253.8,299.8H215v-3.5h38.8V299.8z M207.1,299.8h-10.3v-3.5h10.3V299.8z
			 M188.5,299.8H176v-3.5h12.5V299.8z M274.3,289.4l0-3.5l50.6-0.1l0,3.5L274.3,289.4z M267.6,289.4h-7.3v-3.5h7.3V289.4z
			 M253.8,289.4h-17.8v-3.5h17.8V289.4z M228.9,289.4H176v-3.5h52.8V289.4z M324.9,278.9h-15.4v-3.5h15.4V278.9z M300.7,278.9H262
			v-3.5h38.8V278.9z M253.8,278.9H222v-3.5h31.7V278.9z M213.6,278.9h-7.3v-3.5h7.3V278.9z M199.1,278.9H176v-3.5h23.1V278.9z
			 M314.3,268.4h-50.4v-3.5h50.4V268.4z M255.3,268.4h-79.5v-3.5h79.5V268.4z"/>
	</g>
	<path class="st2" d="M113.6,296.5H91.9V292l7.8-7.9c2.3-2.4,3.8-4,4.5-4.9c0.7-0.9,1.2-1.8,1.5-2.5c0.3-0.8,0.5-1.6,0.5-2.4
		c0-1.2-0.3-2.2-1-2.8c-0.7-0.6-1.6-0.9-2.8-0.9c-1.2,0-2.4,0.3-3.5,0.8c-1.1,0.6-2.3,1.3-3.6,2.4l-3.6-4.2c1.5-1.3,2.8-2.2,3.8-2.8
		c1-0.5,2.1-1,3.3-1.2c1.2-0.3,2.5-0.4,4-0.4c1.9,0,3.7,0.4,5.2,1.1c1.5,0.7,2.6,1.7,3.5,3c0.8,1.3,1.2,2.7,1.2,4.4
		c0,1.4-0.3,2.8-0.8,4c-0.5,1.3-1.3,2.5-2.3,3.9c-1.1,1.3-2.9,3.2-5.6,5.6l-4,3.8v0.3h13.6V296.5L113.6,296.5z"/>
	<path class="st2" d="M137.4,296.5h-21.8V292l7.8-7.9c2.3-2.4,3.8-4,4.5-4.9c0.7-0.9,1.2-1.8,1.5-2.5c0.3-0.8,0.5-1.6,0.5-2.4
		c0-1.2-0.3-2.2-1-2.8c-0.7-0.6-1.6-0.9-2.8-0.9c-1.2,0-2.4,0.3-3.5,0.8c-1.1,0.6-2.3,1.3-3.6,2.4l-3.6-4.2c1.5-1.3,2.8-2.2,3.8-2.8
		c1-0.5,2.1-1,3.3-1.2c1.2-0.3,2.5-0.4,4-0.4c1.9,0,3.7,0.4,5.2,1.1c1.5,0.7,2.6,1.7,3.5,3c0.8,1.3,1.2,2.7,1.2,4.4
		c0,1.4-0.3,2.8-0.8,4c-0.5,1.3-1.3,2.5-2.3,3.9c-1.1,1.3-2.9,3.2-5.6,5.6l-4,3.8v0.3h13.6V296.5L137.4,296.5z"/>
	<path class="st2" d="M413.8,294.4c-3.8-4.7-10.6-13.9-10.6-18.4c0-5.8,4.7-10.6,10.6-10.6c5.8,0,10.6,4.7,10.6,10.6
		C424.4,280.5,417.7,289.7,413.8,294.4L413.8,294.4z M413.8,261.9c-7.8,0-14.1,6.3-14.1,14.1c0,7.2,11.4,20.8,12.7,22.3l1.3,1.6
		l1.3-1.6c1.3-1.5,12.7-15,12.7-22.3C427.9,268.3,421.6,261.9,413.8,261.9L413.8,261.9z"/>
	<path class="st2" d="M413.8,279.5c-1.9,0-3.5-1.6-3.5-3.5c0-1.9,1.6-3.5,3.5-3.5c1.9,0,3.5,1.6,3.5,3.5
		C417.3,277.9,415.7,279.5,413.8,279.5L413.8,279.5z M413.8,268.9c-3.9,0-7,3.2-7,7c0,3.9,3.2,7,7,7c3.9,0,7-3.2,7-7
		C420.8,272.1,417.7,268.9,413.8,268.9L413.8,268.9z"/>
	<path class="st2" d="M369.8,265c8.8,0,15.9,7.1,15.9,15.9c0,8.7-7.1,15.9-15.9,15.9c-8.8,0-15.9-7.1-15.9-15.9
		C353.9,272.2,361.1,265,369.8,265L369.8,265z M369.8,300.3c10.7,0,19.4-8.7,19.4-19.4c0-10.7-8.7-19.4-19.4-19.4
		c-10.7,0-19.4,8.7-19.4,19.4C350.4,291.6,359.1,300.3,369.8,300.3L369.8,300.3z"/>
	<polygon class="st2" points="378.1,286.7 371.6,280.2 371.6,268.6 368,268.6 368,281.6 375.6,289.2 378.1,286.7 	"/>
	<path class="st3" d="M434.1,404.7c0,3.9-3.2,7-7,7H69.5c-3.9,0-7-3.2-7-7V343c0-3.9,3.2-7,7-7H427c3.9,0,7,3.2,7,7V404.7
		L434.1,404.7z"/>
	<g class="st2">
		<path d="M427,414.3H69.5c-5.3,0-9.7-4.3-9.7-9.7V343c0-5.3,4.3-9.7,9.7-9.7H427c5.3,0,9.7,4.3,9.7,9.7v61.6
			C436.7,410,432.4,414.3,427,414.3z M69.5,338.6c-2.4,0-4.4,2-4.4,4.4v61.6c0,2.4,2,4.4,4.4,4.4H427c2.4,0,4.4-2,4.4-4.4V343
			c0-2.4-2-4.4-4.4-4.4H69.5z"/>
	</g>
	<path class="st1" d="M142,336H69.5c-3.9,0-7,3.2-7,7v61.6c0,3.9,3.2,7,7,7H142V336L142,336z"/>
	<g class="st2">
		<path d="M144.7,414.3H69.5c-5.3,0-9.7-4.3-9.7-9.7V343c0-5.3,4.3-9.7,9.7-9.7h75.2V414.3z M69.5,338.6c-2.4,0-4.4,2-4.4,4.4v61.6
			c0,2.4,2,4.4,4.4,4.4h69.9v-70.5H69.5z"/>
	</g>
	<g class="st2">
		<path d="M287.5,391.4h-38.8v-3.5h38.8V391.4z M240.5,391.4h-38.8v-3.5h38.8V391.4z M193.9,391.4h-10.3v-3.5h10.3V391.4z
			 M175.3,391.4h-12.5v-3.5h12.5V391.4z M261.1,381l0-3.5l50.6-0.1l0,3.5L261.1,381z M254.4,381h-7.3v-3.5h7.3V381z M240.5,381
			h-17.8v-3.5h17.8V381z M215.7,381h-52.8v-3.5h52.8V381z M311.6,370.5h-15.4v-3.5h15.4V370.5z M287.5,370.5h-38.8v-3.5h38.8V370.5z
			 M240.5,370.5h-31.7v-3.5h31.7V370.5z M200.4,370.5h-7.3v-3.5h7.3V370.5z M185.9,370.5h-23.1v-3.5h23.1V370.5z M301.1,360h-50.4
			v-3.5h50.4V360z M242.1,360h-79.5v-3.5h79.5V360z"/>
	</g>
	<path class="st2" d="M100.4,388.1H78.7v-4.6l7.8-7.9c2.3-2.4,3.8-4,4.5-4.9c0.7-0.9,1.2-1.8,1.5-2.5c0.3-0.8,0.5-1.6,0.5-2.4
		c0-1.2-0.3-2.2-1-2.8c-0.7-0.6-1.6-0.9-2.8-0.9c-1.2,0-2.4,0.3-3.5,0.8c-1.1,0.6-2.3,1.3-3.6,2.4l-3.6-4.2c1.5-1.3,2.8-2.2,3.8-2.8
		c1-0.5,2.1-1,3.3-1.2s2.5-0.4,4-0.4c1.9,0,3.7,0.4,5.2,1.1c1.5,0.7,2.6,1.7,3.5,3c0.8,1.3,1.2,2.7,1.2,4.4c0,1.4-0.3,2.8-0.8,4
		c-0.5,1.3-1.3,2.5-2.3,3.9c-1.1,1.3-2.9,3.2-5.6,5.6l-4,3.8v0.3h13.6V388.1L100.4,388.1z"/>
	<path class="st2" d="M114.7,376.6v-5.3c0-0.9,0-2.2,0.1-3.8c0.1-1.7,0.1-2.6,0.2-2.9h-0.2c-0.5,1.2-1.2,2.3-1.9,3.4l-5.7,8.6H114.7
		L114.7,376.6z M124.9,381.7h-3.7v6.4h-6.4v-6.4h-13.3v-4.6l13.6-20.1h6.1v19.6h3.7V381.7L124.9,381.7z"/>
	<path class="st2" d="M400.6,386c-3.8-4.7-10.6-13.9-10.6-18.4c0-5.8,4.7-10.6,10.6-10.6c5.8,0,10.6,4.7,10.6,10.6
		C411.2,372.1,404.5,381.3,400.6,386L400.6,386z M400.6,353.5c-7.8,0-14.1,6.3-14.1,14.1c0,7.2,11.4,20.8,12.7,22.3l1.3,1.6l1.3-1.6
		c1.3-1.5,12.7-15,12.7-22.3C414.7,359.9,408.4,353.5,400.6,353.5L400.6,353.5z"/>
	<path class="st2" d="M400.6,371.1c-1.9,0-3.5-1.6-3.5-3.5c0-1.9,1.6-3.5,3.5-3.5c1.9,0,3.5,1.6,3.5,3.5
		C404.1,369.5,402.5,371.1,400.6,371.1L400.6,371.1z M400.6,360.5c-3.9,0-7,3.2-7,7c0,3.9,3.2,7,7,7c3.9,0,7-3.2,7-7
		C407.6,363.7,404.5,360.5,400.6,360.5L400.6,360.5z"/>
	<path class="st2" d="M356.6,356.6c8.8,0,15.9,7.1,15.9,15.9c0,8.7-7.1,15.9-15.9,15.9c-8.8,0-15.9-7.1-15.9-15.9
		C340.7,363.7,347.8,356.6,356.6,356.6L356.6,356.6z M356.6,391.9c10.7,0,19.4-8.7,19.4-19.4c0-10.7-8.7-19.4-19.4-19.4
		c-10.7,0-19.4,8.7-19.4,19.4C337.2,383.2,345.9,391.9,356.6,391.9L356.6,391.9z"/>
	<polygon class="st2" points="364.9,378.3 358.3,371.8 358.3,360.2 354.8,360.2 354.8,373.2 362.4,380.8 364.9,378.3 	"/>
	<polygon class="st2" points="238.2,61.8 238.2,72.3 241.7,72.3 241.7,68.8 259.3,68.8 259.3,65.3 241.7,65.3 241.7,61.8 
		238.2,61.8 	"/>
	<polygon class="st2" points="241.7,82.9 238.2,82.9 238.2,86.4 241.7,86.4 241.7,82.9 	"/>
	<polygon class="st2" points="248.8,82.9 245.2,82.9 245.2,86.4 248.8,86.4 248.8,82.9 	"/>
	<polygon class="st2" points="255.8,82.9 252.3,82.9 252.3,86.4 255.8,86.4 255.8,82.9 	"/>
	<polygon class="st2" points="262.9,82.9 259.3,82.9 259.3,86.4 262.9,86.4 262.9,82.9 	"/>
	<polygon class="st2" points="241.7,89.9 238.2,89.9 238.2,93.5 241.7,93.5 241.7,89.9 	"/>
	<polygon class="st2" points="248.8,89.9 245.2,89.9 245.2,93.5 248.8,93.5 248.8,89.9 	"/>
	<polygon class="st2" points="255.8,89.9 252.3,89.9 252.3,93.5 255.8,93.5 255.8,89.9 	"/>
	<polygon class="st2" points="262.9,89.9 259.3,89.9 259.3,93.5 262.9,93.5 262.9,89.9 	"/>
	<path class="st2" d="M266.4,98.8h-31.7V77.6h31.7V98.8L266.4,98.8z M269.9,77.6v-3.5v-8.8h-5.3v-3.5h-3.5v10.6h3.5v-3.5h1.8v5.3
		h-31.7v-5.3h1.8v-3.5h-5.3v8.8v3.5v24.7h38.7V77.6L269.9,77.6z"/>
	<g class="st2">
		<path d="M146.3,98.6L129.8,82l16.5-16.5l2.5,2.5l-12.3,12.3h54.2v3.5h-54.2l12.3,12.3L146.3,98.6z M357.9,98.6l-2.5-2.5l12.3-12.3
			h-54.2v-3.5h54.2L355.4,68l2.5-2.5L374.4,82L357.9,98.6z"/>
	</g>
</g>
</svg>
