<svg width="39" height="38" viewBox="0 0 39 38" fill="none" xmlns="http://www.w3.org/2000/svg">
<path d="M38.5118 14.8423L32.0894 11.1323V18.5498L38.5118 22.2598V14.8423Z" fill="#4A96D2"/>
<path d="M6.41992 3.71489L12.8399 0.00488281V7.42489L6.41992 11.1324V3.71489Z" fill="#FFDF43"/>
<path d="M12.8398 7.42239L12.8399 0.00488281L19.2623 3.71489V11.1324L12.8398 7.42239Z" fill="#E9B528"/>
<path d="M12.8424 29.6925V22.2725L6.41992 25.9825V33.4025L12.8424 29.6925Z" fill="#B7182E"/>
<path d="M19.2649 33.4024L12.8424 29.6925L6.41992 33.4025L12.8424 37.1124L19.2649 33.4024Z" fill="#EA5284"/>
<path d="M19.2476 33.4024L25.6676 37.1124V29.6924L19.2476 25.9824V33.4024Z" fill="#BCA3CE"/>
<path d="M25.6676 29.6924V37.1124L32.09 33.4024V25.9824L25.6676 29.6924Z" fill="#6A509D"/>
<path d="M6.42249 18.565V25.985L0 22.275V14.855L6.42249 18.565Z" fill="#E46437"/>
<path d="M12.8425 14.855L6.42249 18.565L0 14.855L6.42249 11.145L12.8425 14.855Z" fill="#F59F40"/>
<path d="M32.09 11.13L25.6675 14.84V7.41997L32.09 3.70996V11.13Z" fill="#4E9A53"/>
<path d="M32.0925 3.71L25.67 7.42001L19.25 3.71L25.67 0L32.0925 3.71Z" fill="#AECC53"/>
<path d="M38.5118 22.2598L32.0894 18.5498L25.6699 22.2601L32.0899 25.9701L38.5118 22.2598Z" fill="#83D0F5"/>
</svg>
